<?xml version="1.0" encoding="utf-8"?>
<!-- Generator: Adobe Illustrator 19.0.0, SVG Export Plug-In . SVG Version: 6.00 Build 0)  -->
<svg version="1.1" id="Layer_1" xmlns="http://www.w3.org/2000/svg" xmlns:xlink="http://www.w3.org/1999/xlink" x="0px" y="0px"
	 viewBox="0 0 391 438.1" style="enable-background:new 0 0 391 438.1;" xml:space="preserve">
<style type="text/css">
	.st0{fill:url(#XMLID_29_);}
</style>
<linearGradient id="XMLID_29_" gradientUnits="userSpaceOnUse" x1="27.0463" y1="166.2325" x2="417.641" y2="166.2325" gradientTransform="matrix(0.9886 -0.1503 0.1503 0.9886 -32.0517 86.1473)">
	<stop  offset="0" style="stop-color:#96DEDA"/>
	<stop  offset="0" style="stop-color:#B066FE"/>
	<stop  offset="1" style="stop-color:#63E2FF"/>
</linearGradient>
<path id="XMLID_3_" class="st0" d="M139.1,13.8C104.9,25.1,72.4,42,43,62.7C28.2,73.2,13.4,85.2,4.4,101.2
	c-5.3,9.3-7.5,21.6,3.5,27.5c5.2,2.8,11.3,3.6,17.1,3.8c59.3,2.3,113.2,25.6,109.5,77.3c-3.7,51.6,14.1,281.9,83.3,216.7
	c36.6-34.5,62.5-82.1,86.3-125.6c27.8-50.7,53-103.1,72.8-157.4c6.2-16.8,17.1-40,13.2-58.2c-4-18.4-20.7-32.6-35-43.4
	c-22.8-17.1-49.6-29.1-77.3-35.6C243-2.1,204.8-1.8,169.7,5.5C159.3,7.6,149.1,10.4,139.1,13.8z"/>
</svg>
