<?xml version="1.0" encoding="utf-8"?>
<!-- Generator: Adobe Illustrator 19.0.0, SVG Export Plug-In . SVG Version: 6.00 Build 0)  -->
<svg version="1.1" id="Layer_1" xmlns="http://www.w3.org/2000/svg" xmlns:xlink="http://www.w3.org/1999/xlink" x="0px" y="0px"
	 viewBox="0 0 429.3 341.6" style="enable-background:new 0 0 429.3 341.6;" xml:space="preserve">
<style type="text/css">
	.st0{fill:url(#XMLID_42_);}
</style>
<linearGradient id="XMLID_42_" gradientUnits="userSpaceOnUse" x1="110.2702" y1="284.8724" x2="503.8205" y2="284.8724" gradientTransform="matrix(0.9267 -0.3758 0.3758 0.9267 -175.1373 19.0404)">
	<stop  offset="0" style="stop-color:#96DEDA"/>
	<stop  offset="0" style="stop-color:#B066FE"/>
	<stop  offset="1" style="stop-color:#63E2FF"/>
</linearGradient>
<path id="XMLID_28_" class="st0" d="M209.4,0.2c61.7-2.4,119.4,22.9,161.7,69.4c37.5,41.3,76.1,107.3,49.4,163.9
	c-14.4,30.4-44.1,48-72.6,63c-36.3,19.2-75.4,33.8-115.9,41.1c-26.6,4.8-63,9.8-83.2-12.9c-8.5-9.5-10.8-22.9-14.7-34.6
	c-8.6-25.9-26.6-46.3-49.3-60.8c-22.6-14.4-48.8-23.5-68.2-42.5c-20.6-20.3-20.1-53.4-8.4-78.2c12.7-26.9,36.4-46.2,61.7-60.6
	C106,27.2,146.3,8,188,2.1C195.2,1.1,202.3,0.4,209.4,0.2z"/>
</svg>
